<svg width="24" height="24" viewBox="0 0 24 24" fill="none" xmlns="http://www.w3.org/2000/svg">
<g clip-path="url(#clip0_5_82)">
<path fill-rule="evenodd" clip-rule="evenodd" d="M2.46856 0.754287C2.95034 0.271913 3.60395 0.000601546 4.28571 1.36713e-06H14.5714C14.6841 -0.000199799 14.7956 0.0218014 14.8998 0.0647472C15.0039 0.107693 15.0985 0.170741 15.1783 0.250287L22.0354 7.10743C22.115 7.18718 22.178 7.28182 22.221 7.38595C22.2639 7.49008 22.2859 7.60165 22.2857 7.71429V21.4286C22.2857 22.1106 22.0148 22.7646 21.5326 23.2468C21.0503 23.7291 20.3963 24 19.7143 24H4.28571C3.60372 24 2.94967 23.7291 2.46743 23.2468C1.9852 22.7646 1.71428 22.1106 1.71428 21.4286V2.57143C1.71428 1.88914 1.98514 1.23429 2.46856 0.754287ZM8.49428 6.77143C8.72481 6.77143 8.95307 6.72602 9.16605 6.63781C9.37903 6.54959 9.57255 6.42028 9.73555 6.25728C9.89856 6.09427 10.0279 5.90075 10.1161 5.68777C10.2043 5.4748 10.2497 5.24653 10.2497 5.016C10.2497 4.78548 10.2043 4.55721 10.1161 4.34423C10.0279 4.13125 9.89856 3.93773 9.73555 3.77473C9.57255 3.61172 9.37903 3.48242 9.16605 3.3942C8.95307 3.30598 8.72481 3.26057 8.49428 3.26057C8.02871 3.26057 7.58221 3.44552 7.253 3.77473C6.9238 4.10393 6.73885 4.55043 6.73885 5.016C6.73885 5.48157 6.9238 5.92807 7.253 6.25728C7.58221 6.58648 8.02871 6.77143 8.49428 6.77143ZM4.93028 14.5714C4.93028 13.98 5.40857 13.5 5.99999 13.5H18C18.2737 13.515 18.5313 13.6343 18.7199 13.8332C18.9085 14.0321 19.0138 14.2957 19.0142 14.5698C19.0147 14.8439 18.9102 15.1078 18.7222 15.3074C18.5343 15.5069 18.2771 15.6269 18.0034 15.6429H6.00342C5.7191 15.6429 5.4464 15.53 5.2452 15.3291C5.044 15.1283 4.93073 14.8557 4.93028 14.5714ZM4.93028 19.7143C4.93028 19.1229 5.40857 18.6429 5.99999 18.6429H12.8571C13.1308 18.6579 13.3884 18.7771 13.577 18.9761C13.7656 19.175 13.8709 19.4385 13.8714 19.7127C13.8718 19.9868 13.7673 20.2507 13.5794 20.4502C13.3914 20.6498 13.1342 20.7698 12.8606 20.7857H6.00342C5.7191 20.7857 5.4464 20.6729 5.2452 20.472C5.044 20.2711 4.93073 19.9986 4.93028 19.7143ZM8.49599 7.944C7.29599 7.944 6.20056 8.39486 5.37257 9.13714C4.88056 9.57772 5.26456 10.2857 5.92457 10.2857H11.064C11.7257 10.2857 12.1097 9.57772 11.6177 9.13714C10.7599 8.36699 9.64883 7.94192 8.49599 7.944Z" fill="white"/>
</g>
<defs>
<clipPath id="clip0_5_82">
<rect width="24" height="24" fill="white"/>
</clipPath>
</defs>
</svg>
