<svg width="24" height="24" viewBox="0 0 24 24" fill="none" xmlns="http://www.w3.org/2000/svg">
<g clip-path="url(#clip0_5_80)">
<path fill-rule="evenodd" clip-rule="evenodd" d="M12.9034 15.996C13.8978 15.421 14.7664 14.6521 15.4577 13.7348C15.2349 13.3883 15.0764 13.0045 14.9897 12.6017L14.9571 12.4509C14.8638 12.0201 14.6438 11.6272 14.3256 11.3223C14.0073 11.0175 13.6052 10.8147 13.1709 10.74C9.61886 10.1228 9.61886 5.02456 13.1709 4.40571C13.5904 4.3335 13.9801 4.14175 14.2933 3.85347C14.6065 3.5652 14.8299 3.19266 14.9366 2.78056C14.1013 1.87039 13.0792 1.15152 11.9402 0.673189C10.8013 0.194859 9.57234 -0.0316228 8.33768 0.00925731C7.10301 0.0501374 5.89178 0.357414 4.78694 0.910037C3.6821 1.46266 2.70977 2.24757 1.93655 3.211C1.16333 4.17443 0.607498 5.29361 0.307129 6.49188C0.00676039 7.69014 -0.0310474 8.93918 0.196296 10.1534C0.423639 11.3677 0.91076 12.5184 1.62429 13.5268C2.33782 14.5353 3.2609 15.3776 4.33029 15.996V18C4.33029 18.4547 4.5109 18.8907 4.83239 19.2122C5.15388 19.5337 5.58992 19.7143 6.04458 19.7143H11.1874C11.6421 19.7143 12.0781 19.5337 12.3996 19.2122C12.7211 18.8907 12.9017 18.4547 12.9017 18L12.9034 15.996ZM4.33201 22.7143C4.33201 22.3733 4.46746 22.0463 4.70858 21.8051C4.9497 21.564 5.27673 21.4286 5.61772 21.4286H11.6177C11.9587 21.4286 12.2857 21.564 12.5269 21.8051C12.768 22.0463 12.9034 22.3733 12.9034 22.7143C12.9034 23.0553 12.768 23.3823 12.5269 23.6234C12.2857 23.8645 11.9587 24 11.6177 24H5.61772C5.27673 24 4.9497 23.8645 4.70858 23.6234C4.46746 23.3823 4.33201 23.0553 4.33201 22.7143ZM16.812 2.94342C17.1257 1.51028 19.1657 1.50171 19.4914 2.93142L19.5069 2.99999L19.5377 3.13371C19.7228 3.91677 20.1333 4.62839 20.7187 5.1805C21.304 5.73261 22.0383 6.10097 22.8309 6.23999C24.3257 6.50056 24.3257 8.64685 22.8309 8.90742C22.0338 9.04707 21.2955 9.41869 20.7086 9.97578C20.1216 10.5329 19.7119 11.2507 19.5309 12.0394L19.4914 12.2143C19.1657 13.6457 17.124 13.6371 16.8086 12.2023L16.776 12.0531C16.6032 11.2614 16.1985 10.539 15.6135 9.97815C15.0285 9.41729 14.2898 9.04335 13.4914 8.90399C11.9983 8.64514 11.9983 6.50228 13.4914 6.24171C14.287 6.10336 15.0236 5.73206 15.608 5.17483C16.1924 4.6176 16.5983 3.89948 16.7743 3.11142L16.8 2.99999L16.812 2.94342Z" fill="white"/>
</g>
<defs>
<clipPath id="clip0_5_80">
<rect width="24" height="24" fill="white"/>
</clipPath>
</defs>
</svg>
